<svg width="16" height="21" viewBox="0 0 16 21" fill="none" xmlns="http://www.w3.org/2000/svg">
<path d="M7.76306 4.6026C6.21516 4.6026 4.95526 5.80721 4.95526 7.28719C4.95526 8.76716 6.21516 9.97178 7.76306 9.97178C9.31096 9.97178 10.5709 8.76716 10.5709 7.28719C10.5709 5.80721 9.31096 4.6026 7.76306 4.6026ZM7.76306 9.20475C6.65719 9.20475 5.75749 8.34453 5.75749 7.28719C5.75749 6.22984 6.65719 5.36963 7.76306 5.36963C8.86893 5.36963 9.76863 6.22984 9.76863 7.28719C9.76863 8.34453 8.86893 9.20475 7.76306 9.20475Z" fill="white"/>
<path d="M13.1314 2.15465C11.6786 0.765565 9.74685 0.000457764 7.69234 0.000457764C5.63743 0.000457764 3.70607 0.765565 2.25324 2.15465C-0.43543 4.72495 -0.769558 9.56104 1.52963 12.4911L7.69234 21.0005L13.8458 12.503C16.1542 9.56104 15.8201 4.72495 13.1314 2.15465ZM13.1952 12.0546L7.69234 19.6528L2.18064 12.0428C0.0952439 9.38424 0.394074 5.0168 2.82081 2.69693C4.12203 1.45282 5.85203 0.767483 7.69234 0.767483C9.53265 0.767483 11.2627 1.45282 12.5643 2.69693C14.991 5.0168 15.2898 9.38424 13.1952 12.0546Z" fill="white"/>
</svg>
