<svg width="21" height="17" viewBox="0 0 21 17" fill="none" xmlns="http://www.w3.org/2000/svg">
<path d="M20.9856 13.9918C20.9188 13.5833 20.6275 13.2311 20.1864 13.0255L15.0057 10.6108C14.3711 10.3151 13.5662 10.4012 13.0482 10.8204L12.0278 11.6464C11.7563 11.8663 11.3266 11.8858 11.0287 11.6916C10.2242 11.1676 9.43214 10.5909 8.67448 9.97758C7.91681 9.36424 7.20442 8.72308 6.55706 8.07182C6.31726 7.8306 6.34126 7.48287 6.61289 7.26301L7.6333 6.43695C8.15117 6.01777 8.25766 5.36621 7.89223 4.85245L4.90934 0.658584C4.65535 0.301488 4.2203 0.065701 3.71567 0.0116557C3.211 -0.0424998 2.71513 0.0937517 2.35519 0.385126L0.817589 1.62986C-0.255568 2.49862 -0.272803 4.08774 0.769058 6.10456C1.77087 8.04381 3.64043 10.1786 6.03325 12.1157C8.42616 14.0527 11.0633 15.5661 13.4589 16.3771C14.6853 16.7922 15.7835 16.9997 16.7108 16.9996C17.6673 16.9996 18.4417 16.7789 18.9866 16.3378L20.5242 15.093C20.8841 14.8017 21.0523 14.4003 20.9856 13.9918ZM14.6662 11.0881L19.847 13.5027C20.1032 13.6221 20.2724 13.8267 20.3111 14.064C20.3437 14.2631 20.2798 14.4592 20.1349 14.6171L13.2497 11.4362L13.5293 11.2098C13.8301 10.9664 14.2977 10.9163 14.6662 11.0881ZM3.62641 0.557653C3.91954 0.589044 4.17222 0.725993 4.31971 0.9334L7.30261 5.12727C7.51487 5.42566 7.45301 5.80412 7.15226 6.04754L6.89541 6.25547L2.94431 0.700293C3.10582 0.603474 3.29899 0.550897 3.50037 0.550897C3.54214 0.550897 3.58428 0.553137 3.62641 0.557653ZM18.5055 15.9483C17.6529 16.6385 15.9092 16.6096 13.7214 15.869C11.4056 15.085 8.8461 13.6137 6.51438 11.7262C4.18265 9.83868 2.36516 7.76675 1.39673 5.89209C0.481776 4.12104 0.446082 2.70948 1.29867 2.01926L2.44014 1.0952L6.39718 6.65879L6.1318 6.87361C5.61407 7.29275 5.56899 7.95628 6.02699 8.41713C6.68959 9.08374 7.41849 9.73977 8.19335 10.367C8.96829 10.9943 9.7787 11.5844 10.6021 12.1207C11.1713 12.4915 11.991 12.455 12.5089 12.0359L12.751 11.8399L19.6458 15.0253L18.5055 15.9483Z" fill="white"/>
</svg>
